<svg xmlns="http://www.w3.org/2000/svg" xmlns:xlink="http://www.w3.org/1999/xlink" width="2000" zoomAndPan="magnify" viewBox="0 0 1500 1499.999933" height="2000" preserveAspectRatio="xMidYMid meet" version="1.0"><defs><g/><clipPath id="f4e7437dbe"><rect x="0" width="522" y="0" height="159"/></clipPath><clipPath id="6d53b71b45"><rect x="0" width="586" y="0" height="179"/></clipPath><clipPath id="54d7410ce6"><path d="M 691 673 L 813 673 L 813 804 L 691 804 Z M 691 673 " clip-rule="nonzero"/></clipPath><clipPath id="1e0505f086"><path d="M 692.773438 666.476562 L 816.96875 675.175781 L 807.429688 811.34375 L 683.234375 802.644531 Z M 692.773438 666.476562 " clip-rule="nonzero"/></clipPath><clipPath id="3f8d055ade"><path d="M 692.773438 666.476562 L 816.96875 675.175781 L 807.429688 811.34375 L 683.234375 802.644531 Z M 692.773438 666.476562 " clip-rule="nonzero"/></clipPath><clipPath id="e43964a742"><path d="M 128.230469 598 L 666.730469 598 L 666.730469 879 L 128.230469 879 Z M 128.230469 598 " clip-rule="nonzero"/></clipPath><clipPath id="5ebe7febd1"><path d="M 833.253906 598 L 1371.753906 598 L 1371.753906 879.820312 L 833.253906 879.820312 Z M 833.253906 598 " clip-rule="nonzero"/></clipPath><clipPath id="b2b92a6357"><path d="M 0.28125 1 L 538.753906 1 L 538.753906 281 L 0.28125 281 Z M 0.28125 1 " clip-rule="nonzero"/></clipPath><clipPath id="84d9f04e8c"><rect x="0" width="539" y="0" height="282"/></clipPath></defs><g transform="matrix(1, 0, 0, 1, 488, 382)"><g clip-path="url(#f4e7437dbe)"><g fill="#ffffff" fill-opacity="1"><g transform="translate(30.093203, 146.611102)"><g><path d="M -20.296875 -36.796875 L 4.34375 -11.640625 L 19.0625 -26.0625 L 22.75 -22.296875 L 4.15625 -4.078125 L -24.171875 -33 Z M -20.296875 -36.796875 "/></g></g></g><g fill="#ffffff" fill-opacity="1"><g transform="translate(62.104342, 115.94176)"><g><path d="M 0.375 -17.921875 C 1.414062 -16.460938 2.703125 -15.398438 4.234375 -14.734375 C 5.773438 -14.066406 7.382812 -13.820312 9.0625 -14 C 10.75 -14.175781 12.320312 -14.789062 13.78125 -15.84375 C 15.289062 -16.925781 16.421875 -18.238281 17.171875 -19.78125 C 17.921875 -21.332031 18.21875 -22.953125 18.0625 -24.640625 C 17.914062 -26.328125 17.320312 -27.898438 16.28125 -29.359375 L 1 -50.59375 L 5.3125 -53.6875 L 20.6875 -32.3125 C 22.363281 -29.976562 23.300781 -27.519531 23.5 -24.9375 C 23.707031 -22.351562 23.226562 -19.890625 22.0625 -17.546875 C 20.894531 -15.203125 19.160156 -13.207031 16.859375 -11.5625 C 14.585938 -9.925781 12.15625 -8.925781 9.5625 -8.5625 C 6.976562 -8.195312 4.5 -8.523438 2.125 -9.546875 C -0.25 -10.578125 -2.273438 -12.257812 -3.953125 -14.59375 L -19.328125 -35.96875 L -14.90625 -39.15625 Z M 0.375 -17.921875 "/></g></g></g><g fill="#ffffff" fill-opacity="1"><g transform="translate(103.512673, 87.179929)"><g><path d="M 30.40625 -18.640625 C 29.625 -17.296875 28.503906 -15.847656 27.046875 -14.296875 C 25.585938 -12.742188 23.8125 -11.441406 21.71875 -10.390625 C 18.007812 -8.535156 14.335938 -7.71875 10.703125 -7.9375 C 7.066406 -8.15625 3.796875 -9.269531 0.890625 -11.28125 C -2.015625 -13.289062 -4.3125 -15.960938 -6 -19.296875 C -7.78125 -22.867188 -8.617188 -26.460938 -8.515625 -30.078125 C -8.421875 -33.703125 -7.421875 -37.003906 -5.515625 -39.984375 C -3.609375 -42.972656 -0.9375 -45.328125 2.5 -47.046875 C 4.539062 -48.078125 6.578125 -48.769531 8.609375 -49.125 C 10.640625 -49.476562 12.578125 -49.566406 14.421875 -49.390625 L 14.75 -43.859375 C 11.039062 -44.335938 7.785156 -43.875 4.984375 -42.46875 C 2.648438 -41.300781 0.800781 -39.597656 -0.5625 -37.359375 C -1.925781 -35.128906 -2.671875 -32.660156 -2.796875 -29.953125 C -2.921875 -27.242188 -2.34375 -24.617188 -1.0625 -22.078125 C 0.238281 -19.472656 1.957031 -17.394531 4.09375 -15.84375 C 6.226562 -14.289062 8.601562 -13.425781 11.21875 -13.25 C 13.84375 -13.070312 16.472656 -13.644531 19.109375 -14.96875 C 22.335938 -16.59375 24.691406 -18.925781 26.171875 -21.96875 Z M 30.40625 -18.640625 "/></g></g></g><g fill="#ffffff" fill-opacity="1"><g transform="translate(147.538314, 66.483594)"><g><path d="M -3.0625 -41.90625 L 10.59375 -3.796875 L 5.484375 -1.96875 L -8.171875 -40.078125 Z M -3.0625 -41.90625 "/></g></g></g><g fill="#ffffff" fill-opacity="1"><g transform="translate(173.348197, 57.693879)"><g/></g></g><g fill="#ffffff" fill-opacity="1"><g transform="translate(199.948965, 50.629014)"><g><path d="M 31.078125 -4.09375 L 27.171875 -8.109375 C 26.191406 -6.429688 24.789062 -5.007812 22.96875 -3.84375 C 21.144531 -2.675781 18.992188 -1.925781 16.515625 -1.59375 C 13.992188 -1.269531 11.648438 -1.492188 9.484375 -2.265625 C 7.328125 -3.046875 5.554688 -4.253906 4.171875 -5.890625 C 2.796875 -7.535156 1.960938 -9.488281 1.671875 -11.75 C 1.421875 -13.632812 1.660156 -15.441406 2.390625 -17.171875 C 3.128906 -18.910156 4.226562 -20.457031 5.6875 -21.8125 C 7.144531 -23.175781 8.78125 -24.21875 10.59375 -24.9375 L 8.515625 -27.046875 C 6.265625 -29.566406 5 -31.921875 4.71875 -34.109375 C 4.507812 -35.691406 4.707031 -37.238281 5.3125 -38.75 C 5.925781 -40.257812 6.921875 -41.539062 8.296875 -42.59375 C 9.679688 -43.644531 11.378906 -44.300781 13.390625 -44.5625 C 15.421875 -44.832031 17.367188 -44.675781 19.234375 -44.09375 C 21.097656 -43.507812 22.707031 -42.664062 24.0625 -41.5625 L 21.859375 -37.609375 C 19.054688 -39.523438 16.710938 -40.363281 14.828125 -40.125 C 13.265625 -39.914062 12.070312 -39.269531 11.25 -38.1875 C 10.4375 -37.101562 10.125 -35.859375 10.3125 -34.453125 C 10.488281 -33.117188 11.3125 -31.601562 12.78125 -29.90625 L 25.296875 -17.15625 L 27.8125 -27.671875 L 32.796875 -28.328125 L 29.0625 -13.3125 L 37.34375 -4.921875 Z M 16.546875 -6.53125 C 18.347656 -6.769531 19.859375 -7.332031 21.078125 -8.21875 C 22.304688 -9.113281 23.207031 -10.195312 23.78125 -11.46875 L 14 -21.484375 C 12.675781 -21.242188 11.457031 -20.691406 10.34375 -19.828125 C 9.238281 -18.972656 8.398438 -17.910156 7.828125 -16.640625 C 7.253906 -15.378906 7.0625 -14.066406 7.25 -12.703125 C 7.519531 -10.585938 8.550781 -8.953125 10.34375 -7.796875 C 12.132812 -6.648438 14.203125 -6.226562 16.546875 -6.53125 Z M 16.546875 -6.53125 "/></g></g></g><g fill="#ffffff" fill-opacity="1"><g transform="translate(250.068537, 45.367602)"><g/></g></g><g fill="#ffffff" fill-opacity="1"><g transform="translate(277.893566, 45.610089)"><g><path d="M 15.1875 -6.015625 C 14.90625 -2.816406 14.050781 -0.113281 12.625 2.09375 C 11.195312 4.3125 9.335938 5.945312 7.046875 7 C 4.765625 8.050781 2.226562 8.492188 -0.5625 8.328125 L -0.09375 3.078125 C 2.664062 3.171875 4.929688 2.40625 6.703125 0.78125 C 8.484375 -0.84375 9.519531 -3.328125 9.8125 -6.671875 L 12.703125 -39.53125 L 18.09375 -39.046875 Z M 15.1875 -6.015625 "/></g></g></g><g fill="#ffffff" fill-opacity="1"><g transform="translate(308.009583, 48.279146)"><g><path d="M 28.6875 -4.640625 L 13.484375 -7.953125 L 7 1.53125 L 1.75 0.375 L 28 -37.046875 L 28.328125 -36.96875 L 36.65625 7.984375 L 30.515625 6.640625 Z M 27.875 -9.625 L 25.390625 -25.296875 L 16.390625 -12.125 Z M 27.875 -9.625 "/></g></g></g><g fill="#ffffff" fill-opacity="1"><g transform="translate(355.449939, 59.435015)"><g><path d="M 26.234375 10.078125 L 22.71875 -7.28125 C 22.425781 -7.363281 22.003906 -7.507812 21.453125 -7.71875 L 15.84375 -9.875 L 10.5 4.03125 L 5.4375 2.09375 L 19.953125 -35.703125 L 30.03125 -31.828125 C 32.613281 -30.835938 34.738281 -29.5 36.40625 -27.8125 C 38.082031 -26.125 39.15625 -24.175781 39.625 -21.96875 C 40.101562 -19.769531 39.863281 -17.4375 38.90625 -14.96875 C 38.007812 -12.632812 36.671875 -10.691406 34.890625 -9.140625 C 33.117188 -7.585938 30.976562 -6.71875 28.46875 -6.53125 L 32.140625 12.359375 Z M 23.21875 -12.671875 C 25.9375 -11.617188 28.171875 -11.578125 29.921875 -12.546875 C 31.671875 -13.523438 32.898438 -14.9375 33.609375 -16.78125 C 34.035156 -17.882812 34.203125 -19.070312 34.109375 -20.34375 C 34.023438 -21.625 33.570312 -22.832031 32.75 -23.96875 C 31.925781 -25.101562 30.675781 -25.992188 29 -26.640625 L 23.15625 -28.890625 L 17.734375 -14.78125 Z M 23.21875 -12.671875 "/></g></g></g><g fill="#ffffff" fill-opacity="1"><g transform="translate(398.576459, 76.585274)"><g><path d="M 25.296875 -32.125 L 34.890625 -26.59375 C 39.253906 -24.0625 42.363281 -21.101562 44.21875 -17.71875 C 46.082031 -14.34375 46.878906 -10.910156 46.609375 -7.421875 C 46.347656 -3.941406 45.335938 -0.679688 43.578125 2.359375 C 41.617188 5.742188 39.09375 8.28125 36 9.96875 C 32.914062 11.65625 29.640625 12.4375 26.171875 12.3125 C 22.710938 12.1875 19.429688 11.226562 16.328125 9.4375 L 5.046875 2.921875 Z M 18.046875 4.34375 C 20.640625 5.832031 23.242188 6.65625 25.859375 6.8125 C 28.484375 6.976562 30.925781 6.425781 33.1875 5.15625 C 35.457031 3.882812 37.367188 1.90625 38.921875 -0.78125 C 40.515625 -3.519531 41.285156 -6.222656 41.234375 -8.890625 C 41.179688 -11.554688 40.453125 -13.972656 39.046875 -16.140625 C 37.640625 -18.304688 35.789062 -20.050781 33.5 -21.375 L 27.375 -24.90625 L 12.375 1.0625 Z M 18.046875 4.34375 "/></g></g></g><g fill="#ffffff" fill-opacity="1"><g transform="translate(442.834224, 103.783229)"><g><path d="M 33.46875 -25.40625 L 8.953125 6.8125 L 4.640625 3.53125 L 29.15625 -28.6875 Z M 34.140625 -28.125 L 31.453125 -30.15625 L 39.6875 -33.3125 L 44.328125 -29.796875 Z M 34.140625 -28.125 "/></g></g></g><g fill="#ffffff" fill-opacity="1"><g transform="translate(464.303553, 120.081025)"><g><path d="M 23.484375 -8.109375 L 24.6875 -8.40625 L 48.59375 -9.265625 L 53.625 -4.390625 L 29.515625 -3.578125 L 26.125 25.34375 L 21.171875 20.546875 L 24.25 -3.859375 L 19.5 -3.859375 L 8.15625 7.90625 L 4.1875 4.0625 L 32.375 -25 L 36.34375 -21.15625 L 25 -9.453125 Z M 23.484375 -8.109375 "/></g></g></g></g></g><g transform="matrix(1, 0, 0, 1, 458, 935)"><g clip-path="url(#6d53b71b45)"><g fill="#ffffff" fill-opacity="1"><g transform="translate(11.974983, 29.901089)"><g><path d="M 22.59375 17.53125 L 18.65625 21.03125 L 2 2.25 L 4.609375 2.421875 C 9.984375 2.734375 14.253906 2.90625 17.421875 2.9375 C 20.597656 2.96875 23.5625 2.722656 26.3125 2.203125 C 29.070312 1.691406 31.257812 0.71875 32.875 -0.71875 C 34.582031 -2.238281 35.4375 -3.894531 35.4375 -5.6875 C 35.445312 -7.488281 34.804688 -9.117188 33.515625 -10.578125 C 32.492188 -11.722656 31.398438 -12.46875 30.234375 -12.8125 C 29.078125 -13.15625 27.984375 -13.175781 26.953125 -12.875 C 25.921875 -12.582031 25.046875 -12.117188 24.328125 -11.484375 C 22.535156 -9.890625 21.550781 -8.046875 21.375 -5.953125 L 16.90625 -6.40625 C 16.65625 -7.820312 16.9375 -9.40625 17.75 -11.15625 C 18.570312 -12.90625 19.570312 -14.300781 20.75 -15.34375 C 22.289062 -16.707031 24.0625 -17.59375 26.0625 -18 C 28.0625 -18.40625 30.101562 -18.234375 32.1875 -17.484375 C 34.28125 -16.742188 36.21875 -15.367188 38 -13.359375 C 39.507812 -11.660156 40.453125 -9.789062 40.828125 -7.75 C 41.210938 -5.71875 41.054688 -3.742188 40.359375 -1.828125 C 39.671875 0.078125 38.53125 1.734375 36.9375 3.140625 C 35.351562 4.554688 33.425781 5.59375 31.15625 6.25 C 28.894531 6.90625 26.578125 7.300781 24.203125 7.4375 C 21.828125 7.582031 18.789062 7.648438 15.09375 7.640625 L 13.828125 7.640625 Z M 22.59375 17.53125 "/></g></g></g><g fill="#ffffff" fill-opacity="1"><g transform="translate(41.125537, 61.583848)"><g><path d="M 27.453125 -6.75 C 29.460938 -4.75 30.554688 -2.472656 30.734375 0.078125 C 30.910156 2.640625 29.796875 5.269531 27.390625 7.96875 C 25.703125 9.863281 23.785156 11.144531 21.640625 11.8125 C 19.492188 12.476562 17.328125 12.539062 15.140625 12 C 12.960938 11.457031 10.976562 10.390625 9.1875 8.796875 C 7.882812 7.628906 6.8125 6.164062 5.96875 4.40625 C 5.125 2.65625 4.664062 0.953125 4.59375 -0.703125 L 9.671875 -2.1875 C 9.597656 -1.039062 9.828125 0.1875 10.359375 1.5 C 10.890625 2.820312 11.640625 3.914062 12.609375 4.78125 C 14.191406 6.195312 16 6.859375 18.03125 6.765625 C 20.070312 6.679688 21.875 5.757812 23.4375 4 C 24.832031 2.4375 25.472656 0.773438 25.359375 -0.984375 C 25.253906 -2.753906 24.394531 -4.359375 22.78125 -5.796875 C 21.550781 -6.890625 20.175781 -7.738281 18.65625 -8.34375 L 18.703125 -8.625 L 33.3125 -12.6875 L 24.875 -20.203125 L 28.34375 -24.09375 L 42.78125 -11.25 Z M 27.453125 -6.75 "/></g></g></g><g fill="#ffffff" fill-opacity="1"><g transform="translate(72.766251, 88.458912)"><g><path d="M 3.296875 -1.234375 C 3.796875 -1.898438 4.457031 -2.289062 5.28125 -2.40625 C 6.113281 -2.53125 6.847656 -2.359375 7.484375 -1.890625 C 8.054688 -1.460938 8.410156 -0.832031 8.546875 0 C 8.679688 0.84375 8.5 1.597656 8 2.265625 C 7.488281 2.953125 6.828125 3.34375 6.015625 3.4375 C 5.203125 3.53125 4.5 3.351562 3.90625 2.90625 C 3.269531 2.4375 2.878906 1.800781 2.734375 1 C 2.597656 0.195312 2.785156 -0.546875 3.296875 -1.234375 Z M 3.296875 -1.234375 "/></g></g></g><g fill="#ffffff" fill-opacity="1"><g transform="translate(90.155566, 101.046572)"><g/></g></g><g fill="#ffffff" fill-opacity="1"><g transform="translate(115.658311, 117.217703)"><g><path d="M 19.84375 -14.9375 L 20.921875 -15.59375 L 43.390625 -23.765625 L 49.671875 -20.6875 L 26.984375 -12.484375 L 32.65625 16.0625 L 26.46875 13.03125 L 21.875 -11.140625 L 17.375 -9.671875 L 10.1875 5.015625 L 5.234375 2.578125 L 23.109375 -33.75 L 28.0625 -31.3125 L 20.875 -16.6875 Z M 19.84375 -14.9375 "/></g></g></g><g fill="#ffffff" fill-opacity="1"><g transform="translate(161.726396, 138.940229)"><g><path d="M 48.65625 -26.796875 L 18.578125 8.03125 L 14.671875 -37.8125 L 20.796875 -35.828125 L 22.875 -4.484375 L 42.5625 -28.765625 Z M 48.65625 -26.796875 "/></g></g></g><g fill="#ffffff" fill-opacity="1"><g transform="translate(212.531294, 154.3083)"><g><path d="M 38.578125 -34.40625 L 37.6875 -29.265625 L 17.09375 -32.828125 L 15 -20.6875 L 33.375 -17.515625 L 32.484375 -12.390625 L 14.109375 -15.5625 L 11.984375 -3.265625 L 33.34375 0.4375 L 32.4375 5.625 L 5.75 1 L 12.65625 -38.890625 Z M 36.515625 -46.6875 L 25.765625 -38.828125 L 25.703125 -38.84375 L 18.078125 -49.875 L 22.890625 -49.046875 L 26.625 -43.515625 L 31.765625 -47.515625 Z M 36.515625 -46.6875 "/></g></g></g><g fill="#ffffff" fill-opacity="1"><g transform="translate(261.217709, 161.766112)"><g><path d="M 31.34375 -39.25 L 31.140625 -34.03125 L 20.28125 -34.46875 L 18.84375 0.765625 L 13.421875 0.546875 L 14.859375 -34.6875 L 4.296875 -35.125 L 4.5 -40.34375 Z M 31.34375 -39.25 "/></g></g></g><g fill="#ffffff" fill-opacity="1"><g transform="translate(306.691381, 163.195999)"><g><path d="M 36.609375 -44.578125 L 41 -2.96875 L 40.84375 -2.953125 L 8.125 -29.84375 L 11.25 -1.1875 L 5.796875 -0.609375 L 1.421875 -42.078125 L 1.703125 -42.109375 L 34.40625 -14.890625 L 31.203125 -44 Z M 36.609375 -44.578125 "/></g></g></g><g fill="#ffffff" fill-opacity="1"><g transform="translate(366.106207, 155.617296)"><g><path d="M 23.40625 -17.234375 L 8.359375 -13.234375 L 6.9375 -1.84375 L 1.734375 -0.46875 L 7.984375 -45.75 L 8.296875 -45.828125 L 36.25 -9.65625 L 30.1875 -8.03125 Z M 20.390625 -21.3125 L 11.015625 -34.109375 L 9.03125 -18.28125 Z M 20.390625 -21.3125 "/></g></g></g><g fill="#ffffff" fill-opacity="1"><g transform="translate(415.721759, 141.05024)"><g/></g></g><g fill="#ffffff" fill-opacity="1"><g transform="translate(443.590064, 129.798739)"><g><path d="M 22.59375 -17.53125 L 25 -12.84375 L 2.6875 -1.375 L 3.5 -3.875 C 5.132812 -9 6.363281 -13.09375 7.1875 -16.15625 C 8.007812 -19.21875 8.507812 -22.144531 8.6875 -24.9375 C 8.863281 -27.738281 8.457031 -30.101562 7.46875 -32.03125 C 6.425781 -34.050781 5.035156 -35.285156 3.296875 -35.734375 C 1.554688 -36.179688 -0.175781 -35.960938 -1.90625 -35.078125 C -3.269531 -34.378906 -4.257812 -33.515625 -4.875 -32.484375 C -5.5 -31.453125 -5.796875 -30.394531 -5.765625 -29.3125 C -5.734375 -28.238281 -5.5 -27.269531 -5.0625 -26.40625 C -3.96875 -24.28125 -2.429688 -22.875 -0.453125 -22.1875 L -2 -17.96875 C -3.425781 -18.070312 -4.882812 -18.738281 -6.375 -19.96875 C -7.875 -21.195312 -8.984375 -22.507812 -9.703125 -23.90625 C -10.640625 -25.726562 -11.054688 -27.660156 -10.953125 -29.703125 C -10.847656 -31.753906 -10.171875 -33.695312 -8.921875 -35.53125 C -7.679688 -37.363281 -5.867188 -38.894531 -3.484375 -40.125 C -1.460938 -41.15625 0.578125 -41.601562 2.640625 -41.46875 C 4.703125 -41.34375 6.570312 -40.703125 8.25 -39.546875 C 9.9375 -38.398438 11.265625 -36.878906 12.234375 -34.984375 C 13.210938 -33.097656 13.734375 -30.972656 13.796875 -28.609375 C 13.867188 -26.253906 13.675781 -23.910156 13.21875 -21.578125 C 12.769531 -19.253906 12.082031 -16.300781 11.15625 -12.71875 L 10.84375 -11.484375 Z M 22.59375 -17.53125 "/></g></g></g><g fill="#ffffff" fill-opacity="1"><g transform="translate(481.677162, 109.505481)"><g><path d="M 14.515625 -9.71875 C 12.015625 -8.019531 9.375 -7.132812 6.59375 -7.0625 C 3.820312 -6.988281 1.097656 -7.753906 -1.578125 -9.359375 C -4.265625 -10.960938 -6.6875 -13.335938 -8.84375 -16.484375 C -12.28125 -21.503906 -13.765625 -26.101562 -13.296875 -30.28125 C -12.828125 -34.457031 -10.597656 -37.894531 -6.609375 -40.59375 C -4.117188 -42.300781 -1.488281 -43.195312 1.28125 -43.28125 C 4.050781 -43.363281 6.773438 -42.601562 9.453125 -41 C 12.140625 -39.394531 14.546875 -37.039062 16.671875 -33.9375 C 18.867188 -30.726562 20.226562 -27.582031 20.75 -24.5 C 21.269531 -21.414062 20.988281 -18.597656 19.90625 -16.046875 C 18.820312 -13.503906 17.023438 -11.394531 14.515625 -9.71875 Z M 11.515625 -13.984375 C 14.140625 -15.773438 15.457031 -18.164062 15.46875 -21.15625 C 15.476562 -24.144531 14.316406 -27.382812 11.984375 -30.875 C 9.660156 -34.195312 7.117188 -36.367188 4.359375 -37.390625 C 1.597656 -38.421875 -1.09375 -38.039062 -3.71875 -36.25 C -6.300781 -34.476562 -7.601562 -32.117188 -7.625 -29.171875 C -7.644531 -26.222656 -6.507812 -23.046875 -4.21875 -19.640625 C -1.84375 -16.242188 0.722656 -14.007812 3.484375 -12.9375 C 6.253906 -11.863281 8.929688 -12.210938 11.515625 -13.984375 Z M 11.515625 -13.984375 "/></g></g></g><g fill="#ffffff" fill-opacity="1"><g transform="translate(520.394497, 81.868524)"><g><path d="M 17.53125 -22.59375 L 21.03125 -18.65625 L 2.25 -2 L 2.421875 -4.609375 C 2.734375 -9.984375 2.90625 -14.253906 2.9375 -17.421875 C 2.96875 -20.597656 2.722656 -23.5625 2.203125 -26.3125 C 1.691406 -29.070312 0.71875 -31.265625 -0.71875 -32.890625 C -2.238281 -34.585938 -3.894531 -35.4375 -5.6875 -35.4375 C -7.488281 -35.445312 -9.117188 -34.804688 -10.578125 -33.515625 C -11.722656 -32.492188 -12.46875 -31.398438 -12.8125 -30.234375 C -13.15625 -29.078125 -13.175781 -27.984375 -12.875 -26.953125 C -12.582031 -25.921875 -12.113281 -25.046875 -11.46875 -24.328125 C -9.882812 -22.535156 -8.046875 -21.546875 -5.953125 -21.359375 L -6.40625 -16.90625 C -7.820312 -16.65625 -9.40625 -16.941406 -11.15625 -17.765625 C -12.90625 -18.585938 -14.300781 -19.582031 -15.34375 -20.75 C -16.695312 -22.289062 -17.578125 -24.0625 -17.984375 -26.0625 C -18.398438 -28.0625 -18.234375 -30.101562 -17.484375 -32.1875 C -16.742188 -34.28125 -15.367188 -36.21875 -13.359375 -38 C -11.660156 -39.507812 -9.789062 -40.453125 -7.75 -40.828125 C -5.71875 -41.210938 -3.742188 -41.054688 -1.828125 -40.359375 C 0.0859375 -39.671875 1.753906 -38.53125 3.171875 -36.9375 C 4.578125 -35.351562 5.601562 -33.425781 6.25 -31.15625 C 6.90625 -28.894531 7.300781 -26.578125 7.4375 -24.203125 C 7.582031 -21.828125 7.648438 -18.789062 7.640625 -15.09375 L 7.640625 -13.8125 Z M 17.53125 -22.59375 "/></g></g></g><g fill="#ffffff" fill-opacity="1"><g transform="translate(552.112391, 52.725579)"><g><path d="M -6.3125 -28.5 C -5.039062 -29.925781 -3.457031 -30.929688 -1.5625 -31.515625 C 0.320312 -32.097656 2.285156 -32.1875 4.328125 -31.78125 C 6.367188 -31.375 8.210938 -30.441406 9.859375 -28.984375 C 11.671875 -27.378906 12.878906 -25.507812 13.484375 -23.375 C 14.085938 -21.25 14.113281 -19.101562 13.5625 -16.9375 C 13.019531 -14.769531 12.007812 -12.847656 10.53125 -11.171875 C 8.863281 -9.304688 6.921875 -8.019531 4.703125 -7.3125 C 2.484375 -6.613281 0.164062 -6.5625 -2.25 -7.15625 C -4.664062 -7.757812 -6.976562 -9.035156 -9.1875 -10.984375 C -12.507812 -13.941406 -14.5625 -17.875 -15.34375 -22.78125 C -16.125 -27.695312 -16.050781 -33.085938 -15.125 -38.953125 L -9.734375 -39.03125 C -10.710938 -35.46875 -11.128906 -32.117188 -10.984375 -28.984375 C -10.835938 -25.859375 -10.25 -23.140625 -9.21875 -20.828125 C -9.375 -23.566406 -8.40625 -26.125 -6.3125 -28.5 Z M 6.71875 -14.234375 C 8.132812 -15.835938 8.800781 -17.632812 8.71875 -19.625 C 8.644531 -21.613281 7.785156 -23.335938 6.140625 -24.796875 C 4.546875 -26.210938 2.773438 -26.820312 0.828125 -26.625 C -1.109375 -26.425781 -2.785156 -25.523438 -4.203125 -23.921875 C -5.097656 -22.921875 -5.703125 -21.804688 -6.015625 -20.578125 C -6.335938 -19.347656 -6.351562 -18.148438 -6.0625 -16.984375 C -5.769531 -15.828125 -5.191406 -14.863281 -4.328125 -14.09375 L -3.578125 -13.421875 C -2.628906 -12.585938 -1.515625 -12.054688 -0.234375 -11.828125 C 1.035156 -11.597656 2.285156 -11.691406 3.515625 -12.109375 C 4.753906 -12.523438 5.820312 -13.234375 6.71875 -14.234375 Z M 6.71875 -14.234375 "/></g></g></g></g></g><g clip-path="url(#54d7410ce6)"><g clip-path="url(#1e0505f086)"><g clip-path="url(#3f8d055ade)"><path fill="#ff3131" d="M 812.050781 697.691406 C 810.011719 684.082031 801.066406 674.902344 788.457031 673.503906 C 782.183594 672.808594 776.207031 674.152344 770.558594 676.851562 C 756.941406 683.347656 747.839844 694.410156 740.253906 706.988281 C 739.355469 708.480469 738.417969 709.945312 737.070312 712.105469 C 736.269531 710.289062 735.855469 709.207031 735.324219 708.191406 C 733.605469 704.886719 732.164062 701.375 730.03125 698.359375 C 722.9375 688.335938 710.539062 686.949219 701.382812 695.175781 C 692.164062 703.460938 689.4375 714.109375 692.332031 725.800781 C 696.707031 743.460938 709.191406 754.066406 725.210938 761.222656 C 720.355469 757.515625 715.171875 754.164062 710.714844 750.027344 C 701.683594 741.644531 696.222656 731.324219 696.726562 718.6875 C 697.121094 708.886719 701.457031 701.050781 710.292969 696.273438 C 716.027344 693.175781 721.554688 694.355469 725.285156 699.6875 C 727.53125 702.894531 729.527344 706.542969 730.535156 710.285156 C 731.964844 715.585938 732.273438 721.179688 733.292969 726.605469 C 733.542969 727.933594 734.695312 729.097656 735.429688 730.335938 C 736.171875 729.25 737.210938 728.261719 737.589844 727.0625 C 738.757812 723.394531 739.449219 719.570312 740.714844 715.941406 C 747.207031 697.316406 759.511719 684.335938 778.640625 678.78125 C 793.996094 674.320312 805.554688 684.054688 804.84375 700.09375 C 804.527344 707.210938 802.574219 713.859375 799.550781 720.234375 C 791.5625 737.074219 779.601562 750.898438 766.113281 763.4375 C 748.296875 780.003906 728.851562 794.03125 704.914062 800.597656 C 703.96875 800.859375 703.140625 801.527344 702.257812 802.003906 C 702.28125 802.328125 702.3125 802.648438 702.335938 802.972656 C 703.621094 803.28125 704.957031 803.988281 706.171875 803.824219 C 710.449219 803.253906 714.816406 802.816406 718.902344 801.539062 C 731.429688 797.640625 742.894531 791.480469 753.648438 784.035156 C 772.628906 770.902344 789.746094 755.816406 802.140625 736.050781 C 809.46875 724.363281 814.167969 711.855469 812.042969 697.6875 Z M 812.050781 697.691406 " fill-opacity="1" fill-rule="nonzero"/></g></g></g><g clip-path="url(#e43964a742)"><path fill="#ffffff" d="M 666.25 609.972656 C 665.472656 604.6875 661.910156 601.179688 656.65625 599.746094 C 649.371094 597.765625 642.394531 599.078125 635.65625 601.714844 C 625.03125 605.882812 615.988281 612.589844 607.828125 620.402344 C 599.851562 628.046875 592.867188 636.59375 585.921875 645.214844 C 575.578125 658.058594 566.40625 671.699219 557.105469 685.261719 C 552.324219 692.214844 547.988281 699.492188 543.683594 706.746094 C 539.171875 714.367188 534.898438 722.152344 530.582031 729.890625 C 528.363281 733.863281 526.265625 737.898438 524.1875 741.9375 C 519.535156 751.023438 515.144531 760.203125 511.507812 769.742188 C 509.75 774.382812 507.71875 778.925781 506.132812 782.722656 L 505.660156 784.027344 C 497.847656 787.171875 490.0625 790.3125 482.023438 792.789062 C 469.375 796.707031 456.90625 801.21875 444.207031 804.941406 C 424.289062 810.777344 404.183594 815.867188 383.859375 820.1875 C 360.714844 825.105469 337.441406 829.226562 313.953125 832.082031 C 292.507812 834.675781 270.957031 836.332031 249.351562 837.152344 C 224.820312 838.097656 200.386719 837.894531 176.109375 833.652344 C 165.207031 831.757812 154.980469 828.085938 145.722656 821.941406 C 144.386719 821.058594 143.320312 819.777344 142.160156 818.722656 C 144.234375 815.78125 147.132812 813.835938 146.519531 809.691406 C 145.765625 808.289062 144.828125 806.515625 143.792969 804.597656 C 141.242188 804.457031 138.703125 804.328125 137.238281 804.242188 C 129.53125 805.964844 131.425781 812.941406 128.25 816.472656 C 129.328125 820.445312 130.757812 823.976562 134.3125 825.847656 C 138.371094 828.011719 142.535156 830.046875 146.832031 831.660156 C 157.929688 835.828125 169.523438 838.109375 181.257812 839.421875 C 206.53125 842.253906 231.894531 842.480469 257.265625 841.339844 C 277.148438 840.445312 297 838.699219 316.71875 836.054688 C 331.855469 834.019531 347 831.789062 362.015625 828.992188 C 378.152344 826.007812 394.214844 822.488281 410.1875 818.785156 C 430.664062 814.027344 450.921875 808.300781 470.871094 801.679688 C 481.828125 798.042969 492.613281 793.917969 503.433594 789.882812 L 501.816406 794.273438 C 501.625 795.382812 501.539062 796.492188 501.214844 797.503906 C 496.542969 812.402344 493.132812 827.527344 492.515625 843.199219 C 492.292969 848.875 492.734375 854.460938 493.710938 859.992188 C 494.207031 862.71875 495.261719 865.441406 496.542969 867.925781 C 501.042969 876.710938 507.890625 879.832031 517.535156 877.527344 C 520.894531 876.722656 524.316406 875.753906 527.351562 874.191406 C 533.328125 871.125 539.277344 867.9375 544.8125 864.160156 C 557.742188 855.363281 569.734375 845.355469 580.960938 834.480469 C 588.421875 827.246094 595.816406 819.917969 603.09375 812.488281 C 614.167969 801.195312 625.171875 789.796875 636.109375 778.363281 C 637.742188 776.664062 638.992188 774.585938 640.304688 772.605469 C 640.574219 772.21875 640.285156 771.464844 640.253906 770.625 C 637.613281 770.820312 636.3125 772.703125 634.859375 774.101562 C 632.050781 776.804688 629.488281 779.753906 626.742188 782.519531 C 616.484375 792.777344 606.191406 803.015625 595.902344 813.242188 C 593.738281 815.382812 591.507812 817.441406 589.3125 819.550781 C 575.105469 833.234375 560.925781 846.9375 544.542969 858.140625 C 538.257812 862.449219 531.917969 866.59375 524.972656 869.714844 C 521.636719 871.210938 518.050781 872.328125 514.488281 873.082031 C 509.871094 874.0625 505.304688 871.671875 502.917969 867.605469 C 500.890625 864.179688 500.019531 860.382812 499.546875 856.484375 C 498.375 847.117188 499.492188 837.816406 501.355469 828.710938 C 503.886719 816.398438 507.242188 804.265625 511.730469 792.53125 C 516.84375 788.171875 521.441406 784.273438 526.050781 780.324219 C 531.949219 775.265625 537.835938 770.195312 543.703125 765.113281 C 556.46875 754.046875 568.730469 742.441406 580.710938 730.527344 C 585.933594 725.347656 591.144531 720.148438 596.3125 714.894531 C 599.789062 711.367188 603.230469 707.800781 606.601562 704.164062 C 614.695312 695.410156 622.5 686.421875 630.15625 677.296875 C 639.917969 665.636719 649.113281 653.601562 656.796875 640.5 C 660.75 633.773438 664.105469 626.710938 665.828125 618.984375 C 666.519531 615.957031 666.667969 612.953125 666.226562 609.949219 Z M 659.292969 623.65625 C 656.378906 630.964844 652.351562 637.636719 647.882812 644.03125 C 636.324219 660.554688 622.941406 675.5625 609.035156 690.117188 C 603.5 695.90625 598.183594 701.933594 592.519531 707.609375 C 587.019531 713.109375 581.066406 718.167969 575.523438 723.625 C 563.035156 735.917969 549.613281 747.15625 536.566406 758.835938 C 532.539062 762.433594 528.257812 765.769531 524.058594 769.160156 C 523.304688 769.773438 522.3125 770.140625 520.742188 771 C 521.25 767.878906 522.324219 765.769531 523.304688 763.691406 C 528.136719 753.519531 532.875 743.304688 538.050781 733.324219 C 541.023438 727.597656 543.863281 721.785156 547.277344 716.285156 C 550.808594 710.589844 553.671875 704.488281 557.265625 698.847656 C 564.972656 686.832031 572.035156 674.378906 580.648438 662.945312 C 583.757812 658.824219 586.429688 654.355469 589.570312 650.242188 C 595.773438 642.179688 601.855469 633.976562 609.175781 626.863281 C 616.9375 619.304688 624.785156 611.847656 634.921875 607.398438 C 639.316406 605.472656 643.71875 603.707031 648.496094 603.09375 C 649.777344 602.933594 651.113281 602.597656 652.363281 602.78125 C 659.285156 603.75 661.652344 606.808594 661.675781 612.265625 C 661.707031 616.238281 660.78125 619.960938 659.304688 623.632812 Z M 659.292969 623.65625 " fill-opacity="1" fill-rule="nonzero"/></g><g clip-path="url(#5ebe7febd1)"><g transform="matrix(1, 0, 0, 1, 833, 598)"><g clip-path="url(#84d9f04e8c)"><g clip-path="url(#b2b92a6357)"><path fill="#ffffff" d="M 0.75 269.699219 C 1.523438 274.988281 5.085938 278.496094 10.339844 279.925781 C 17.628906 281.910156 24.605469 280.59375 31.34375 277.957031 C 41.96875 273.792969 51.007812 267.085938 59.167969 259.269531 C 67.144531 251.628906 74.132812 243.078125 81.074219 234.457031 C 91.421875 221.613281 100.589844 207.976562 109.890625 194.414062 C 114.671875 187.457031 119.011719 180.183594 123.316406 172.925781 C 127.828125 165.304688 132.101562 157.523438 136.417969 149.78125 C 138.632812 145.808594 140.734375 141.773438 142.8125 137.738281 C 147.460938 128.652344 151.851562 119.46875 155.492188 109.929688 C 157.246094 105.292969 159.28125 100.75 160.863281 96.949219 L 161.335938 95.648438 C 169.152344 92.503906 176.933594 89.359375 184.976562 86.882812 C 197.625 82.964844 210.089844 78.457031 222.792969 74.730469 C 242.707031 68.894531 262.816406 63.804688 283.140625 59.488281 C 306.285156 54.570312 329.558594 50.445312 353.046875 47.59375 C 374.488281 45 396.039062 43.339844 417.644531 42.523438 C 442.175781 41.574219 466.613281 41.78125 490.886719 46.019531 C 501.792969 47.914062 512.019531 51.585938 521.277344 57.734375 C 522.609375 58.617188 523.675781 59.898438 524.839844 60.953125 C 522.761719 63.890625 519.867188 65.839844 520.480469 69.984375 C 521.234375 71.382812 522.167969 73.160156 523.203125 75.074219 C 525.753906 75.214844 528.292969 75.34375 529.757812 75.429688 C 537.464844 73.707031 535.570312 66.734375 538.746094 63.203125 C 537.671875 59.230469 536.238281 55.699219 532.6875 53.824219 C 528.628906 51.664062 524.460938 49.628906 520.167969 48.011719 C 509.070312 43.847656 497.476562 41.566406 485.742188 40.25 C 460.464844 37.421875 435.105469 37.195312 409.730469 38.335938 C 389.851562 39.230469 370 40.972656 350.277344 43.621094 C 335.144531 45.65625 319.996094 47.882812 304.980469 50.683594 C 288.84375 53.664062 272.785156 57.183594 256.808594 60.886719 C 236.335938 65.644531 216.074219 71.371094 196.128906 77.992188 C 185.171875 81.632812 174.382812 85.753906 163.566406 89.789062 L 165.179688 85.398438 C 165.375 84.289062 165.460938 83.179688 165.78125 82.167969 C 170.453125 67.269531 173.867188 52.148438 174.480469 36.472656 C 174.707031 30.800781 174.265625 25.214844 173.285156 19.679688 C 172.789062 16.957031 171.734375 14.234375 170.453125 11.746094 C 165.953125 2.960938 159.109375 -0.160156 149.464844 2.144531 C 146.105469 2.953125 142.683594 3.921875 139.644531 5.480469 C 133.671875 8.550781 127.71875 11.734375 122.1875 15.515625 C 109.257812 24.308594 97.265625 34.320312 86.039062 45.191406 C 78.578125 52.425781 71.183594 59.757812 63.90625 67.183594 C 52.828125 78.476562 41.828125 89.875 30.890625 101.308594 C 29.253906 103.007812 28.003906 105.085938 26.691406 107.066406 C 26.421875 107.457031 26.714844 108.210938 26.746094 109.046875 C 29.382812 108.855469 30.6875 106.972656 32.140625 105.570312 C 34.949219 102.871094 37.511719 99.921875 40.253906 97.152344 C 50.515625 86.894531 60.804688 76.65625 71.097656 66.429688 C 73.261719 64.289062 75.488281 62.234375 77.683594 60.125 C 91.894531 46.441406 106.070312 32.738281 122.453125 21.53125 C 128.742188 17.226562 135.082031 13.082031 142.023438 9.960938 C 145.363281 8.464844 148.945312 7.34375 152.511719 6.589844 C 157.128906 5.609375 161.691406 8 164.082031 12.070312 C 166.105469 15.492188 166.976562 19.292969 167.453125 23.191406 C 168.625 32.554688 167.503906 41.855469 165.644531 50.960938 C 163.113281 63.277344 159.753906 75.410156 155.265625 87.144531 C 150.152344 91.503906 145.554688 95.398438 140.949219 99.351562 C 135.050781 104.410156 129.160156 109.480469 123.292969 114.558594 C 110.527344 125.625 98.265625 137.230469 86.285156 149.148438 C 81.066406 154.324219 75.855469 159.523438 70.6875 164.777344 C 67.210938 168.308594 63.765625 171.871094 60.394531 175.511719 C 52.300781 184.261719 44.496094 193.25 36.84375 202.378906 C 27.078125 214.035156 17.886719 226.070312 10.199219 239.171875 C 6.25 245.898438 2.890625 252.960938 1.167969 260.691406 C 0.480469 263.714844 0.328125 266.71875 0.769531 269.722656 Z M 7.703125 256.019531 C 10.621094 248.710938 14.644531 242.035156 19.113281 235.640625 C 30.675781 219.117188 44.054688 204.113281 57.964844 189.558594 C 63.496094 183.765625 68.8125 177.738281 74.476562 172.066406 C 79.976562 166.566406 85.929688 161.503906 91.472656 156.046875 C 103.960938 143.753906 117.382812 132.515625 130.429688 120.835938 C 134.457031 117.242188 138.742188 113.902344 142.941406 110.511719 C 143.695312 109.898438 144.683594 109.53125 146.253906 108.671875 C 145.75 111.792969 144.671875 113.902344 143.695312 115.980469 C 138.859375 126.152344 134.125 136.371094 128.945312 146.347656 C 125.976562 152.074219 123.132812 157.886719 119.71875 163.390625 C 116.191406 169.082031 113.328125 175.1875 109.730469 180.828125 C 102.023438 192.839844 94.960938 205.296875 86.351562 216.726562 C 83.238281 220.851562 80.570312 225.316406 77.425781 229.429688 C 71.226562 237.492188 65.144531 245.695312 57.824219 252.8125 C 50.0625 260.367188 42.214844 267.828125 32.074219 272.273438 C 27.683594 274.199219 23.28125 275.964844 18.5 276.578125 C 17.21875 276.742188 15.882812 277.074219 14.636719 276.890625 C 7.714844 275.921875 5.34375 272.867188 5.324219 267.410156 C 5.292969 263.4375 6.21875 259.710938 7.691406 256.039062 Z M 7.703125 256.019531 " fill-opacity="1" fill-rule="nonzero"/></g></g></g></g></svg>